<svg xmlns="http://www.w3.org/2000/svg" viewBox="0 0 64 64" role="img" aria-labelledby="title desc">
  <title id="title">TeamFlow</title>
  <desc id="desc">칸반 카드가 담긴 협업 채팅 말풍선</desc>
  <defs>
    <linearGradient id="background" x1="8" y1="6" x2="56" y2="60" gradientUnits="userSpaceOnUse">
      <stop stop-color="#6366F1"/>
      <stop offset="1" stop-color="#7C3AED"/>
    </linearGradient>
    <linearGradient id="highlight" x1="18" y1="14" x2="45" y2="47" gradientUnits="userSpaceOnUse">
      <stop stop-color="#FFFFFF" stop-opacity=".98"/>
      <stop offset="1" stop-color="#EEF2FF"/>
    </linearGradient>
  </defs>

  <rect width="64" height="64" rx="16" fill="url(#background)"/>
  <path d="M15 13h34a7 7 0 0 1 7 7v19a7 7 0 0 1-7 7H34l-8 8v-8h-7a7 7 0 0 1-7-7V20a7 7 0 0 1 7-7Z" fill="url(#highlight)"/>

  <rect x="18" y="20" width="8" height="5" rx="2.5" fill="#4F46E5"/>
  <rect x="29" y="20" width="8" height="5" rx="2.5" fill="#818CF8"/>
  <rect x="40" y="20" width="8" height="5" rx="2.5" fill="#A5B4FC"/>

  <rect x="18" y="29" width="13" height="5" rx="2.5" fill="#C7D2FE"/>
  <rect x="34" y="29" width="14" height="5" rx="2.5" fill="#6366F1"/>
  <rect x="18" y="38" width="8" height="5" rx="2.5" fill="#818CF8"/>
  <rect x="29" y="38" width="19" height="5" rx="2.5" fill="#C7D2FE"/>
</svg>
